<?xml version="1.0" encoding="utf-8"?>
<!-- Generator: Adobe Illustrator 19.0.0, SVG Export Plug-In . SVG Version: 6.00 Build 0)  -->
<svg version="1.1" id="Layer_1" xmlns="http://www.w3.org/2000/svg" xmlns:xlink="http://www.w3.org/1999/xlink" x="0px" y="0px"
	 viewBox="0 0 437 156" style="enable-background:new 0 0 437 156;" xml:space="preserve">
<style type="text/css">
	.st0{fill:#F8F9FA;}
	.st1{fill:#0C98A7;}
	.st2{fill:#0D98A7;}
</style>
<g id="XMLID_1_">
	<g id="XMLID_19_">
		<path id="XMLID_31_" class="st0" d="M218.7,156c-71.9,0-143.8,0-215.8,0c-1.8,0-2.2-0.4-2.2-2.2c0.1-50.3,0.1-100.6,0-151
			c0-1.6,0.3-2,2-2c144.2,0,288.3,0,432.5,0c1.6,0,2,0.3,2,2c-0.1,50.4-0.1,100.8,0,151.2c0,1.6-0.3,2-2,2
			C363.1,156,290.9,156,218.7,156z"/>
		<path id="XMLID_30_" class="st1" d="M115.8,18.1c-0.9,0.4-1.6,0-2.4-0.1c-3.2-0.5-6.3-0.2-9.1,1.4c-5.4,3.3-10.3,7.2-14.8,11.8
			c-3.4,3.5-3.8,8.2-4.7,12.6c-0.3,1.6-0.8,3.1-0.8,4.7c0,3.4-1.9,5.2-4.8,6.4c-1.8,0.8-3.6,1.6-5.5,2.4c-0.9,0.4-1.5,1-1.4,2
			c0.1,1.3,1.2,0.7,1.9,0.8c2.1,0.1,4.2,0.1,6.2,0c1.2,0,1.6,0.4,1.3,1.5c-3.6,19.2-6.2,38.6-11.1,57.6c-0.8,3.2-1.8,6.5-3.9,9.2
			c-3.4,4.4-8.1,4.9-12.2,1.2c-1.4-1.3-2.1-0.9-2.6,0.8c-0.6,2.2-1.3,4.4-1.9,6.7c-0.3,1.3-0.8,1.7-2.3,1.1
			c-6.6-2.7-12.7-6.2-18.2-10.7c-11-9-18.6-20.3-22.8-33.9c-2.1-6.9-3.3-13.9-3.1-21.1c0.5-16.6,5.8-31.5,16.6-44.3
			C31.3,15.3,45.2,7.3,61.7,4.5c19.6-3.3,37.6,1.2,53.7,13C115.6,17.6,115.7,17.9,115.8,18.1z"/>
		<path id="XMLID_29_" class="st1" d="M107.4,134.4c-4.5,1.8-8.7,4.1-13.4,5.5c-7,2.1-14.1,3.2-21.3,3.1c-6.5-0.1-12.9-0.9-19.2-3
			c8.8-1.1,14.2-6.9,19-13.4c5-6.9,6.9-15,8.9-23.1c3.4-13.8,5.7-27.8,8.6-41.7c0.3-1.4,0.8-1.8,2.2-1.8c3,0.1,6.1-0.1,9.1,0.1
			c1.6,0.1,2.2-0.6,2.7-2c1.5-5.2,1.6-5.2-3.9-4.6c-2.7,0.3-5.4,0.3-8.5,0.3c1.4-6.3,2.7-12.4,4.1-18.4c0.3-1.4,0.7-2.8,1.3-4.1
			c2.8-6.6,10.3-8.2,15.6-3.3c2,1.9,2.3,1.8,3.2-0.8c0.5-1.4,1-2.9,1.5-4.3c1.2-3.2,1.2-3.2,3.7-0.8c6.3,6,11.5,12.9,15.3,20.8
			c3.8,8,6,16.4,6.7,25.3c1.3,17-3.3,32.3-13,46.1c-3.6,5.1-7.9,9.6-12.8,13.5c-0.2,0.2-0.5,0.3-1.3,0.6c0.7-3.5,1.2-6.6,1.8-9.8
			c1.9-8.6,3.9-17.2,5.9-25.8c0.3-1.2,0.2-2.4-0.8-3.3c-1-0.9-2.3-0.8-3.4-0.3c-5.2,2.3-9.8,5.6-14.4,8.8c-0.8,0.6-0.8,1.4-0.4,2.1
			c0.6,0.9,1.3,0.2,1.9-0.1c1.8-1,3.5-2.2,5.3-3.1c0.6-0.3,1.3-1,2.2-0.2c0.7,0.6,0.7,1.4,0.6,2.2c-1.1,6.5-2.5,13-4.1,19.5
			C109.2,123.5,107.8,128.9,107.4,134.4L107.4,134.4z"/>
		<path id="XMLID_28_" class="st1" d="M387.9,62.8c2.8,0.2,4.3,1.3,5.1,3.2c5.9,14.6,11.9,29.3,17.8,43.9c1.2,2.9-0.1,5.3-3.3,6.6
			c-9,3.7-18,7.4-27,11c-14.1,5.8-28.2,11.5-42.3,17.3c-4.9,2-6.8,1.2-8.7-3.6c-5.6-13.8-11.2-27.5-16.7-41.3
			c-1.7-4.1-0.8-6.2,3.4-7.9c23.3-9.5,46.5-19,69.8-28.5C386.7,63.2,387.6,62.8,387.9,62.8z"/>
		<path id="XMLID_27_" class="st1" d="M172.3,112.3c1.8-2.3,3.4-4.6,5.2-6.7c5.3-6.3,11.3-11.8,19-15c1.2-0.5,2.5-1,3.8-1.4
			c4.1-1.1,5.8,0.5,5.2,4.6c-0.8,5.6-2.4,11.1-3.8,16.6c-1.6,6.2-3.3,12.3-4.3,18.6c-0.2,1.1-0.5,2.3,0.5,3.1c1,0.8,2,0,2.9-0.4
			c1.9-1,3.7-2.2,5.6-3.3c0.6-0.3,1.2-1.3,2-0.1c0.6,1-0.1,1.5-0.7,2c-3.9,3-7.9,5.9-12.3,8.2c-1.7,0.9-3.6,1.9-5.4,0.6
			c-1.9-1.4-1.5-3.6-1.2-5.5c1.4-7.4,3.5-14.6,5.3-21.9c0.9-3.8,1.8-7.6,2.6-11.4c0.7-3.9-0.9-5.2-4.5-3.6
			c-6.4,2.8-11,7.8-15.1,13.4c-5.6,7.7-7.8,16.7-9.4,25.9c-0.3,1.6-0.7,2.4-2.4,2.5c-1.2,0.1-2.3,0.5-3.5,0.8
			c-2.5,0.6-2.8,0.3-2-2.1c1.6-5.2,3-10.4,4.2-15.7c1.6-7.2,3-14.4,3.9-21.7c0.2-1.2,0.5-2.5-0.6-3.4c-1.2-0.9-2.3,0-3.3,0.5
			c-1.4,0.6-2.7,1.4-4,2.1c-0.7,0.3-1.4,1.5-2.2,0.3c-0.7-1.1-0.1-1.9,0.9-2.6c2.3-1.4,4.6-2.9,6.9-4.3c1.8-1,3.7-2,5.6-2.8
			c1.4-0.6,3.1-1.4,4.5-0.2c1.4,1.2,1.1,2.9,0.9,4.5c-0.9,5-2.2,9.8-3.4,14.7C172.6,109.7,172.1,110.8,172.3,112.3z"/>
		<path id="XMLID_26_" class="st1" d="M107.4,134.4c2.6-1.6,5.3-3.3,7.9-4.9c0.8,3.2,1.7,3.7,4.8,1.5c10.2-7.1,17.4-16.5,21-28.5
			c1.1-3.7,2-7.5,2.6-11.3c0.2-1.6,1.1-2.3,2.6-2.5c1.2-0.2,2.5-0.6,3.7-0.9c1.9-0.4,2.5,0.3,1.9,2.2c-2.8,9.1-5.2,18.3-7.1,27.5
			c-0.9,4-1.8,8.1-1.8,12.2c0,2.4,1,3,3.1,1.7c1.8-1.1,3.5-2.5,5.2-3.8c0.6-0.4,1.2-1.1,1.8-0.2c0.5,0.7,1,1.6,0,2.3
			c-4.5,3.4-8.8,7.2-14,9.4c-2.9,1.2-4.7-0.2-4.7-3.3c0.1-5.8,2-11.4,3.1-17c0.2-1.1,0.5-2.1,0.4-3.3c-2.1,2.8-4.1,5.8-6.4,8.5
			c-5,5.9-10.4,11.2-17.4,14.7c-3.2,1.6-6,0.5-6.6-2.5C107.3,135.8,107.4,135.1,107.4,134.4C107.4,134.4,107.4,134.4,107.4,134.4z"
			/>
		<path id="XMLID_25_" class="st1" d="M217.2,123.7c0.2-8.4,1.6-16.6,7.2-23.1c5.9-6.9,13.6-11.3,23-11.8c2.5-0.1,4.9,0.7,7.1,1.8
			c1.1,0.5,1.4,1.2,1.1,2.3c-0.9,3.4-1.6,6.8-1.9,10.3c-0.1,0.9-0.5,1.5-1.5,1.4c-1.2-0.1-1.2-0.9-1.2-1.7c0-1.4,0-2.7,0-4.1
			c0.1-1.8-0.9-2.9-2.5-3.7c-7.3-3.2-15.3-0.5-18.6,6.7c-3.2,6.9-5.1,14.2-4.9,22c0.2,8.1,5.3,11.9,13.1,10
			c4.4-1.1,7.9-3.6,11.6-6.1c0.6-0.4,1.2-1.7,2.1-0.6c1.1,1.2-0.1,1.8-0.9,2.4c-5.3,4.1-10.6,8.3-17.4,9.6
			c-9.4,1.9-15.8-3-16.3-12.5C217.2,125.8,217.2,124.7,217.2,123.7z"/>
		<path id="XMLID_24_" class="st1" d="M317.9,62c0.8,0.3,1.2,1,1.6,1.6c0.6,0.9-0.3,1.3-0.7,1.7c-4.1,4.5-7.9,9.2-11.2,14.4
			c-5.7,9.2-8.5,19.2-9.3,29.9c-1,12.9,0.8,25.2,6.9,36.6c0.5,0.9,0.5,1.6-0.5,2.2c-1,0.7-1.5,0-1.9-0.7
			c-6.5-9.5-11.1-19.7-12.2-31.3c-1.6-16.7,4.5-30.6,15.1-43c3.2-3.8,6.7-7.3,10.5-10.5C316.8,62.6,317.2,62,317.9,62z"/>
		<path id="XMLID_23_" class="st1" d="M424.2,94.8c0.1-10.3-2.2-20.1-6.9-29.3c-0.5-1-1.4-1.9,0.2-2.8c1.4-0.8,1.7,0.5,2.1,1.2
			c7.4,10.8,12.2,22.6,12.2,35.9c0,13.1-4.7,24.4-12.7,34.6c-3.9,4.9-8.1,9.5-12.9,13.5c-0.8,0.6-1.4,2.2-2.9,0.6
			c-1.4-1.4-0.5-2.2,0.4-3.1c8.1-8.6,14.5-18.2,17.7-29.8C423.4,108.8,424.1,101.8,424.2,94.8z"/>
		<path id="XMLID_22_" class="st2" d="M338.2,81.6c-2.9,0-5.3-2.5-5.2-5.4c0.1-3,2.5-5.2,5.5-5.1c2.8,0.1,5.1,2.4,5.1,5.3
			C343.5,79.3,341.1,81.6,338.2,81.6z"/>
		<path id="XMLID_21_" class="st0" d="M367.3,112.7c4.8,1.4,9.1,1.3,13.4-0.4c1-0.4,1.9-0.8,2.8-1.3c2.1-1.3,3.8-2.8,3.3-5.6
			c-0.4-1.9-2.4-3.2-5.4-3.7c-4.1-0.7-8.3-0.1-12.4-0.9c-5.4-1.1-8.9-4.2-10.5-9.4c-1.6-5.1,0-9.5,3.8-13.1
			c5.3-4.9,11.8-7.2,18.8-8.1c1-0.1,1.5,0.3,1.8,1.1c0.8,2.1,1.6,4.2,2.5,6.2c0.6,1.3,0.3,1.7-1.1,1.6c-3.4-0.3-6.7,0.1-9.8,1.5
			c-1.1,0.5-2.2,1-3.1,1.7c-1.7,1.2-2.9,2.8-2.3,5.1c0.6,2.3,2.6,2.8,4.6,3.2c4.1,0.8,8.3,0.2,12.4,0.9c5.8,1,9.5,4.2,11.2,9.8
			c1.6,5.4,0,10-4.3,13.5c-5.7,4.7-12.4,7.2-19.8,7.5c-1.4,0.1-2.2-0.3-2.7-1.7C369.6,118.2,368.5,115.7,367.3,112.7z"/>
		<path id="XMLID_20_" class="st0" d="M338.4,126.8c1.8-0.2,3.4-0.1,5-0.5c4.1-1.1,6-4.1,5.3-8.3c-0.4-2.1-1.2-4.1-2-6.1
			c-3.1-7.5-6.1-15.1-9.2-22.6c-0.6-1.4-0.5-2.1,1.1-2.6c2.2-0.7,4.3-1.7,6.4-2.6c1.1-0.5,1.8-0.5,2.3,0.9
			c3.5,8.7,7.1,17.4,10.5,26.2c1.5,3.9,2.3,8,1.2,12.2c-1.6,6.6-9.1,12.2-15.8,12.1c-1.1,0-1.6-0.5-1.9-1.4
			C340.4,131.7,339.4,129.3,338.4,126.8z"/>
	</g>
</g>
</svg>
